{"title":"HeÃ‚Â´s Just Not That Into You.2009.DVDRip.XVid.AC3(5.1).SWESUB.av","uid":5498397,"size":1467669336,"categoryP":"video","categoryS":"movies","magnet":"?xt=urn:btih:abaa57f13d94262601dbfde368f25f7e397f2a22&amp;dn=He%C3%82%C2%B4s+Just+Not+That+Into+You.2009.DVDRip.XVid.AC3%285.1%29.SWESUB.av&amp;tr=udp%3A%2F%2Ftracker.openbittorrent.com%3A80&amp;tr=udp%3A%2F%2Fopen.demonii.com%3A1337&amp;tr=udp%3A%2F%2Ftracker.coppersurfer.tk%3A6969&amp;tr=udp%3A%2F%2Fexodus.desync.com%3A6969","seeders":5,"leechers":0,"uploader":"Zen_Bud","files":-1,"time":1271406253,"description":"General\nComplete name                    : He's Just Not That Into You.avi\nFormat                           : AVI\nFile size                        : 1.37 GiB\nDuration                         : 2h 4mn\nOverall bit rate                 : 1 578 Kbps\n\nVideo\nID                               : 0\nFormat                           : MPEG-4 Visual\nCodec ID/Hint                    : XviD\nDuration                         : 2h 4mn\nBit rate                         : 1 119 Kbps\nWidth                            : 720 pixels\nHeight                           : 428 pixels\nDisplay aspect ratio             : 2.35:1\nFrame rate                       : 25.000 fps\nResolution                       : 8 bits\nColorimetry                      : 4:2:0\nScan type                        : Progressive\nBits/(Pixel*Frame)               : 0.145\nStream size                      : 993 MiB (71%)\nWriting library                  : XviD 1.1.2 (UTC 2006-11-01)\n\nAudio\nID                               : 1\nFormat                           : AC-3\nFormat/Info                      : Audio Coding 3\nCodec ID                         : 2000\nDuration                         : 2h 4mn\nBit rate mode                    : Constant\nBit rate                         : 448 Kbps\nChannel(s)                       : 6 channels\nChannel positions                : Front: L C R, Side: L R, LFE\nSampling rate                    : 48.0 KHz\nStream size                      : 397 MiB (28%)\n)\n\n","torrent":{"xt":"urn:btih:abaa57f13d94262601dbfde368f25f7e397f2a22","amp;dn":"He%C3%82%C2%B4s+Just+Not+That+Into+You.2009.DVDRip.XVid.AC3%285.1%29.SWESUB.av","amp;tr":["udp%3A%2F%2Ftracker.openbittorrent.com%3A80","udp%3A%2F%2Fopen.demonii.com%3A1337","udp%3A%2F%2Ftracker.coppersurfer.tk%3A6969","udp%3A%2F%2Fexodus.desync.com%3A6969"],"infoHash":"abaa57f13d94262601dbfde368f25f7e397f2a22","infoHashBuffer":{"type":"Buffer","data":[171,170,87,241,61,148,38,38,1,219,253,227,104,242,95,126,57,127,42,34]},"announce":[],"urlList":[]}}